# xmcd CD database file
# Copyright (C) 1993-1998 Ti Kan
# 
# Track frame offsets:
#     150
#     17050
#     35132
#     45557
#     71355
#     94190
#     117625
#     148387
#     176402
#     200947
#     229602
# 
# Disc length: 3474 seconds
# 
# Revision: 1
# Processed by: cddbd v1.4b41PL1 Copyright (c) Steve Scherf et al.
# Submitted via: DiscPlay 4.0.4
# 
DISCID=a30d900b
DTITLE=Cafe R&B - Black and White
DYEAR=1900
DGENRE=
TTITLE0=Tall Grass
TTITLE1=Sitting on top of the World
TTITLE2=Black Cat Blues
TTITLE3=Steppin'
TTITLE4=Don't wake me
TTITLE5=Shine
TTITLE6=I'm Free
TTITLE7=Second Chance
TTITLE8=Phonecall from Leavenworth
TTITLE9=Take your hand out of my Pocket
TTITLE10=Smokestack Lightning
EXTD=
EXTT0=
EXTT1=
EXTT2=
EXTT3=
EXTT4=
EXTT5=
EXTT6=
EXTT7=
EXTT8=
EXTT9=
EXTT10=
PLAYORDER=
